<?xml version="1.0" encoding="UTF-8"?>
<svg xmlns="http://www.w3.org/2000/svg" id="a" width="65px" height="65px" viewBox="0 0 65 65"><circle cx="31.5" cy="33.5" r="21.5" fill="#e5efef"/><path d="m20.72,7h15.78v8h-20.5v-3.28c0-2.61,2.12-4.72,4.72-4.72Z" fill="#efefd2"/><path d="m20.72,7c2.66.11,4.28,2.25,4.28,5v39.3c0,3.7,2.3,6.7,6,6.7h24l4-2.99V12.66c0-3.13-2.53-5.66-5.66-5.66H20.72Z" fill="#fff"/><path d="m31,58h27.22c2.64,0,4.78-2.14,4.78-4.78v-2.22h-27v1.5c0,2.91-2.27,5.3-5.13,5.49h.13Z" fill="#efefd2"/><path d="m42.28,18.8c-3.06,3.52-8.57,3.8-8.57,3.8,1.56,11.26,8.57,12.87,8.57,12.87,0,0,7.02-1.61,8.57-12.87,0,0-5.75-.28-8.57-3.8Z" fill="#fff"/><path d="m41.5,30.49c-.29,0-.58-.13-.77-.36l-1.57-1.87c-.36-.42-.3-1.05.12-1.41.42-.35,1.05-.3,1.41.12l.78.93,2.74-3.52c.34-.44.97-.51,1.4-.17.44.34.51.97.17,1.4l-3.5,4.49c-.19.24-.47.38-.77.39h-.02Z" fill="#a9ba5a"/><path d="m49,42h-12c-.55,0-1-.45-1-1s.45-1,1-1h12c.55,0,1,.45,1,1s-.45,1-1,1Z" fill="#b5a19c"/><path d="m52,45h-18c-.55,0-1-.45-1-1s.45-1,1-1h18c.55,0,1,.45,1,1s-.45,1-1,1Z" fill="#b5a19c"/><path d="m63,50h-3V12.66c0-3.67-2.99-6.66-6.66-6.66H20.72c-3.16,0-5.72,2.57-5.72,5.72v3.28c0,.55.45,1,1,1h8v35.3c0,4.46,2.94,7.7,7,7.7h27.22c3.19,0,5.78-2.59,5.78-5.78v-2.22c0-.55-.45-1-1-1ZM17,14v-2.28c0-2.02,1.62-3.66,3.7-3.71,2.01.09,3.3,1.65,3.3,3.99v2h-7Zm18,38.5c0,2.39-1.87,4.36-4.25,4.49,0,0,0,0,0,0-2.8-.13-4.74-2.44-4.74-5.69V12c0-1.59-.49-2.96-1.3-4h28.64c2.57,0,4.66,2.09,4.66,4.66v37.34h-22c-.55,0-1,.45-1,1v1.5Zm27,.72c0,2.08-1.69,3.78-3.78,3.78h-23.03c1.12-1.17,1.81-2.76,1.81-4.5v-.5h25v1.22Z" fill="#4c241d"/><path d="m42.05,36.44c.07.02.15.03.22.03s.15,0,.22-.03c.31-.07,7.71-1.9,9.34-13.7.04-.28-.04-.56-.22-.77s-.44-.35-.72-.36c-.05,0-5.34-.3-7.84-3.43-.19-.23-.46-.37-.76-.38-.29,0-.58.12-.78.34-2.73,3.15-7.82,3.45-7.87,3.46-.28.01-.54.15-.72.36s-.26.5-.22.77c1.64,11.81,9.03,13.63,9.34,13.7Zm.2-16.19c2.34,2.24,5.72,2.99,7.44,3.23-1.51,8.51-6.31,10.57-7.42,10.94-1.12-.37-5.91-2.44-7.42-10.95,1.69-.25,4.96-1,7.4-3.23Z" fill="#4c241d"/><path d="m.29,40.71c.2.2.45.29.71.29s.51-.1.71-.29l.79-.79.79.79c.2.2.45.29.71.29s.51-.1.71-.29c.39-.39.39-1.02,0-1.41l-.79-.79.79-.79c.39-.39.39-1.02,0-1.41s-1.02-.39-1.41,0l-.79.79-.79-.79c-.39-.39-1.02-.39-1.41,0s-.39,1.02,0,1.41l.79.79-.79.79c-.39.39-.39,1.02,0,1.41Z" fill="#4c241d"/><circle cx="17" cy="37" r="1" fill="#4c241d"/><circle cx="12" cy="28" r="1" fill="#4c241d"/></svg>
