<?xml version="1.0" encoding="UTF-8"?>
<svg xmlns="http://www.w3.org/2000/svg" id="a" width="65px" height="65px" viewBox="0 0 65 65"><circle cx="21.5" cy="28.5" r="21.5" fill="#e5efef"/><path d="m10,58h46v2c0,1.66-1.34,3-3,3H13c-1.66,0-3-1.34-3-3v-2h0Z" fill="#e2e2e2"/><path d="m20.19,60h35.07c2.06,0,3.74-1.64,3.74-3.66v-27.34c0-2.21-1.79-4-4-4h-29.21l-2.22-4.6c-.67-.92-1.75-1.46-2.9-1.46h-11.14c-1.95,0-3.52,1.54-3.52,3.44v33.96c0,2.02,1.67,3.66,3.74,3.66h5.29" fill="#a9ba5a"/><path d="m40.21,39.43h-10.62s.02-.04.02-.06l-.06.05-2.7-6.42-.58,2.88-5.77,1.15.41,1.04c.45,1.12,1.53,1.85,2.73,1.85h1.47l1.71,1.71h-.02s.02.01.03.01h.01s.58,9.82.58,9.82c1.01,0,1.89-.7,2.1-1.69l.95-4.32c2.6,1.09,5.61.85,8.8,0l1.88,6.01c1.02,0,1.84-.83,1.84-1.84v-12.58l-2.79,2.39Z" fill="#bf7e68"/><path d="m19.99,38.45c.6,1.5,2.04,2.48,3.66,2.48h1.06l1.17,1.17.55,9.43c.03.53.47.94,1,.94,1.47,0,2.76-1.04,3.08-2.48l.71-3.22c2.08.59,4.48.55,7.39-.12l1.6,5.11c.13.42.52.7.95.7,1.57,0,2.84-1.28,2.84-2.84v-12.58c0-.39-.23-.75-.58-.91-.36-.16-.77-.1-1.07.15l-2.51,2.15h-9.62l-2.45-5.82c-.17-.4-.58-.65-1.02-.61-.44.04-.79.37-.88.8l-.45,2.23-5.12,1.02c-.29.06-.54.24-.68.5-.14.26-.16.57-.05.85l.42,1.04Zm6.48-1.58c.31-.06.56-.26.7-.53l1.46,3.47c.06.13.15.25.26.34.19.18.44.29.7.29h10.62c.24,0,.47-.09.65-.24l1.14-.98v10.41c0,.21-.08.4-.2.55l-1.57-5.01c-.13-.43-.53-.7-.95-.7-.08,0-.17.01-.26.03-3.45.91-6.04.93-8.16.04-.27-.11-.58-.1-.85.04-.26.14-.45.38-.52.67l-.95,4.31c-.04.17-.11.32-.21.45l-.5-8.41c-.01-.24-.13-.48-.29-.65,0,0-.01-.02-.02-.02l-1.71-1.71c-.19-.19-.44-.29-.71-.29h-1.47c-.77,0-1.45-.44-1.77-1.14l4.59-.92Z" fill="#4c241d"/><path d="m5,56.34c0,2.36,1.81,4.3,4.13,4.59.43,1.77,2.02,3.06,3.87,3.06h40c1.97,0,3.6-1.44,3.93-3.31,1.79-.67,3.07-2.35,3.07-4.34v-27.34c0-2.76-2.24-5-5-5h-28.59l-1.95-4.04c-.03-.05-.06-.11-.09-.16-.86-1.17-2.24-1.87-3.71-1.87h-11.14c-2.49,0-4.52,1.99-4.52,4.44v33.96Zm2-33.96c0-1.35,1.13-2.44,2.52-2.44h11.14c.8,0,1.56.37,2.05.98l1.48,3.08h-5.19c-.55,0-1,.45-1,1s.45,1,1,1h36c1.65,0,3,1.35,3,3v27.34c0,1.46-1.23,2.66-2.74,2.66H20.19c-.55,0-1,.45-1,1s.45,1,1,1h34.53c-.35.59-.99,1-1.72,1H13c-.73,0-1.38-.4-1.73-1h3.75c.55,0,1-.45,1-1s-.45-1-1-1h-5.29c-1.51,0-2.74-1.19-2.74-2.66V22.38Z" fill="#4c241d"/><path d="m34.71,9.29c-.39-.39-1.02-.39-1.41,0l-.79.79-.79-.79c-.39-.39-1.02-.39-1.41,0s-.39,1.02,0,1.41l.79.79-.79.79c-.39.39-.39,1.02,0,1.41.2.2.45.29.71.29s.51-.1.71-.29l.79-.79.79.79c.2.2.45.29.71.29s.51-.1.71-.29c.39-.39.39-1.02,0-1.41l-.79-.79.79-.79c.39-.39.39-1.02,0-1.41Z" fill="#4c241d"/><circle cx="44" cy="18" r="1" fill="#4c241d"/><circle cx="38" cy="1" r="1" fill="#4c241d"/></svg>
