<?xml version="1.0" encoding="UTF-8"?>
<svg xmlns="http://www.w3.org/2000/svg" id="a" width="65px" height="65px" viewBox="0 0 65 65"><circle cx="21.5" cy="28.5" r="21.5" fill="#e5efef"/><path d="m10,58h46v2c0,1.66-1.34,3-3,3H13c-1.66,0-3-1.34-3-3v-2h0Z" fill="#e2e2e2"/><path d="m20.19,60h35.07c2.06,0,3.74-1.64,3.74-3.66v-27.34c0-2.21-1.79-4-4-4h-29.21l-2.22-4.6c-.67-.92-1.75-1.46-2.9-1.46h-11.14c-1.95,0-3.52,1.54-3.52,3.44v33.96c0,2.02,1.67,3.66,3.74,3.66h5.29" fill="#fff"/><circle cx="33" cy="43" r="10" fill="#00ccca"/><path d="m33,54c6.07,0,11-4.93,11-11s-4.93-11-11-11-11,4.93-11,11,4.93,11,11,11Zm0-20c4.96,0,9,4.04,9,9s-4.04,9-9,9-9-4.04-9-9,4.04-9,9-9Z" fill="#4c241d"/><path d="m5,56.34c0,2.36,1.81,4.3,4.13,4.59.43,1.77,2.02,3.06,3.87,3.06h40c1.97,0,3.6-1.44,3.93-3.31,1.79-.67,3.07-2.35,3.07-4.34v-27.34c0-2.76-2.24-5-5-5h-28.59l-1.95-4.04c-.03-.05-.06-.11-.09-.16-.86-1.17-2.24-1.87-3.71-1.87h-11.14c-2.49,0-4.52,1.99-4.52,4.44v33.96Zm2-33.96c0-1.35,1.13-2.44,2.52-2.44h11.14c.8,0,1.56.37,2.05.98l1.48,3.08h-5.19c-.55,0-1,.45-1,1s.45,1,1,1h36c1.65,0,3,1.35,3,3v27.34c0,1.46-1.23,2.66-2.74,2.66H20.19c-.55,0-1,.45-1,1s.45,1,1,1h34.53c-.35.59-.99,1-1.72,1H13c-.73,0-1.38-.4-1.73-1h3.75c.55,0,1-.45,1-1s-.45-1-1-1h-5.29c-1.51,0-2.74-1.19-2.74-2.66V22.38Z" fill="#4c241d"/><path d="m28.41,44h2.17l-1.29,1.29c-.39.39-.39,1.02,0,1.41.2.2.45.29.71.29s.51-.1.71-.29l1.29-1.29v2.17l-1.71,1.71c-.39.39-.39,1.02,0,1.41s1.02.39,1.41,0l1.29-1.29,1.29,1.29c.2.2.45.29.71.29s.51-.1.71-.29c.39-.39.39-1.02,0-1.41l-1.71-1.71v-2.17l1.29,1.29c.2.2.45.29.71.29s.51-.1.71-.29c.39-.39.39-1.02,0-1.41l-1.29-1.29h2.17l1.71,1.71c.2.2.45.29.71.29s.51-.1.71-.29c.39-.39.39-1.02,0-1.41l-1.29-1.29,1.29-1.29c.39-.39.39-1.02,0-1.41s-1.02-.39-1.41,0l-1.71,1.71h-2.17l1.29-1.29c.39-.39.39-1.02,0-1.41s-1.02-.39-1.41,0l-1.29,1.29v-2.17l1.71-1.71c.39-.39.39-1.02,0-1.41s-1.02-.39-1.41,0l-1.29,1.29-1.29-1.29c-.39-.39-1.02-.39-1.41,0s-.39,1.02,0,1.41l1.71,1.71v2.17l-1.29-1.29c-.39-.39-1.02-.39-1.41,0s-.39,1.02,0,1.41l1.29,1.29h-2.17l-1.71-1.71c-.39-.39-1.02-.39-1.41,0s-.39,1.02,0,1.41l1.29,1.29-1.29,1.29c-.39.39-.39,1.02,0,1.41.2.2.45.29.71.29s.51-.1.71-.29l1.71-1.71Z" fill="#4c241d"/><path d="m34.71,9.29c-.39-.39-1.02-.39-1.41,0l-.79.79-.79-.79c-.39-.39-1.02-.39-1.41,0s-.39,1.02,0,1.41l.79.79-.79.79c-.39.39-.39,1.02,0,1.41.2.2.45.29.71.29s.51-.1.71-.29l.79-.79.79.79c.2.2.45.29.71.29s.51-.1.71-.29c.39-.39.39-1.02,0-1.41l-.79-.79.79-.79c.39-.39.39-1.02,0-1.41Z" fill="#4c241d"/><circle cx="44" cy="18" r="1" fill="#4c241d"/><circle cx="38" cy="1" r="1" fill="#4c241d"/></svg>
