<?xml version="1.0" encoding="UTF-8"?>
<svg xmlns="http://www.w3.org/2000/svg" id="a" width="65px" height="65px" viewBox="0 0 65 65"><circle cx="21.5" cy="28.5" r="21.5" fill="#e5efef"/><path d="m10,58h46v2c0,1.66-1.34,3-3,3H13c-1.66,0-3-1.34-3-3v-2h0Z" fill="#e2e2e2"/><path d="m20.19,60h35.07c2.06,0,3.74-1.64,3.74-3.66v-27.34c0-2.21-1.79-4-4-4h-29.21l-2.22-4.6c-.67-.92-1.75-1.46-2.9-1.46h-11.14c-1.95,0-3.52,1.54-3.52,3.44v33.96c0,2.02,1.67,3.66,3.74,3.66h5.29" fill="#b5a19c"/><circle cx="33.14" cy="42.15" r="2.36" fill="#bd53b5"/><path d="m32.14,45.34v3.88c0,.55.45,1,1,1s1-.45,1-1v-3.88c1.36-.43,2.36-1.69,2.36-3.19,0-1.85-1.51-3.36-3.36-3.36s-3.36,1.51-3.36,3.36c0,1.5,1,2.76,2.36,3.19Zm1-4.55c.75,0,1.36.61,1.36,1.36s-.61,1.36-1.36,1.36-1.36-.61-1.36-1.36.61-1.36,1.36-1.36Z" fill="#4c241d"/><path d="m42.57,42.15c0,2.46-.94,4.79-2.66,6.56-.38.4-.38,1.03.02,1.41.19.19.45.28.7.28s.52-.1.72-.3c2.08-2.15,3.22-4.97,3.22-7.96s-1.19-5.92-3.35-8.08c-.39-.39-1.02-.39-1.41,0-.39.39-.39,1.02,0,1.41,1.78,1.78,2.76,4.15,2.76,6.67Z" fill="#4c241d"/><path d="m37.32,46.18c.17.12.37.17.56.17.32,0,.64-.15.83-.44.75-1.11,1.15-2.41,1.15-3.76s-.4-2.65-1.15-3.76c-.31-.46-.93-.58-1.39-.27-.46.31-.58.93-.27,1.39.53.78.81,1.69.81,2.64s-.28,1.86-.81,2.64c-.31.46-.19,1.08.27,1.39Z" fill="#4c241d"/><path d="m25.64,50.41c.25,0,.5-.09.7-.28.4-.38.41-1.02.02-1.41-1.71-1.77-2.66-4.1-2.66-6.56s.98-4.89,2.76-6.67c.39-.39.39-1.02,0-1.41-.39-.39-1.02-.39-1.41,0-2.16,2.16-3.35,5.03-3.35,8.08s1.14,5.81,3.22,7.96c.2.2.46.3.72.3Z" fill="#4c241d"/><path d="m27.56,45.91c.19.29.51.44.83.44.19,0,.39-.06.56-.17.46-.31.58-.93.27-1.39-.53-.78-.81-1.69-.81-2.64s.28-1.86.81-2.64c.31-.46.19-1.08-.27-1.39-.46-.31-1.08-.19-1.39.27-.75,1.11-1.15,2.41-1.15,3.76s.4,2.65,1.15,3.76Z" fill="#4c241d"/><path d="m5,56.34c0,2.36,1.81,4.3,4.13,4.59.43,1.77,2.02,3.06,3.87,3.06h40c1.97,0,3.6-1.44,3.93-3.31,1.79-.67,3.07-2.35,3.07-4.34v-27.34c0-2.76-2.24-5-5-5h-28.59l-1.95-4.04c-.03-.05-.06-.11-.09-.16-.86-1.17-2.24-1.87-3.71-1.87h-11.14c-2.49,0-4.52,1.99-4.52,4.44v33.96Zm2-33.96c0-1.35,1.13-2.44,2.52-2.44h11.14c.8,0,1.56.37,2.05.98l1.48,3.08h-5.19c-.55,0-1,.45-1,1s.45,1,1,1h36c1.65,0,3,1.35,3,3v27.34c0,1.46-1.23,2.66-2.74,2.66H20.19c-.55,0-1,.45-1,1s.45,1,1,1h34.53c-.35.59-.99,1-1.72,1H13c-.73,0-1.38-.4-1.73-1h3.75c.55,0,1-.45,1-1s-.45-1-1-1h-5.29c-1.51,0-2.74-1.19-2.74-2.66V22.38Z" fill="#4c241d"/><path d="m34.71,9.29c-.39-.39-1.02-.39-1.41,0l-.79.79-.79-.79c-.39-.39-1.02-.39-1.41,0s-.39,1.02,0,1.41l.79.79-.79.79c-.39.39-.39,1.02,0,1.41.2.2.45.29.71.29s.51-.1.71-.29l.79-.79.79.79c.2.2.45.29.71.29s.51-.1.71-.29c.39-.39.39-1.02,0-1.41l-.79-.79.79-.79c.39-.39.39-1.02,0-1.41Z" fill="#4c241d"/><circle cx="44" cy="18" r="1" fill="#4c241d"/><circle cx="38" cy="1" r="1" fill="#4c241d"/></svg>
